<mxfile host="app.diagrams.net" modified="2024-03-11T07:49:23.947Z" agent="Mozilla/5.0 (Macintosh; Intel Mac OS X 10.15; rv:123.0) Gecko/20100101 Firefox/123.0" etag="8UAL0jvoErEdgckbAUDc" version="23.0.2" type="device">
  <diagram id="C5RBs43oDa-KdzZeNtuy" name="Page-1">
    <mxGraphModel dx="2205" dy="2389" grid="1" gridSize="10" guides="1" tooltips="1" connect="1" arrows="1" fold="1" page="1" pageScale="1" pageWidth="827" pageHeight="1169" math="0" shadow="0">
      <root>
        <mxCell id="WIyWlLk6GJQsqaUBKTNV-0" />
        <mxCell id="WIyWlLk6GJQsqaUBKTNV-1" parent="WIyWlLk6GJQsqaUBKTNV-0" />
        <mxCell id="WIyWlLk6GJQsqaUBKTNV-2" value="" style="rounded=0;html=1;jettySize=auto;orthogonalLoop=1;fontSize=11;endArrow=block;endFill=0;endSize=8;strokeWidth=1;shadow=0;labelBackgroundColor=none;edgeStyle=orthogonalEdgeStyle;" parent="WIyWlLk6GJQsqaUBKTNV-1" target="WIyWlLk6GJQsqaUBKTNV-6" edge="1">
          <mxGeometry relative="1" as="geometry">
            <mxPoint x="425" y="80" as="sourcePoint" />
          </mxGeometry>
        </mxCell>
        <mxCell id="WIyWlLk6GJQsqaUBKTNV-4" value="" style="rounded=0;html=1;jettySize=auto;orthogonalLoop=1;fontSize=11;endArrow=block;endFill=0;endSize=8;strokeWidth=1;shadow=0;labelBackgroundColor=none;edgeStyle=orthogonalEdgeStyle;movable=1;resizable=1;rotatable=1;deletable=1;editable=1;locked=0;connectable=1;" parent="WIyWlLk6GJQsqaUBKTNV-1" source="WIyWlLk6GJQsqaUBKTNV-6" edge="1">
          <mxGeometry y="20" relative="1" as="geometry">
            <mxPoint as="offset" />
            <mxPoint x="425" y="440" as="targetPoint" />
          </mxGeometry>
        </mxCell>
        <mxCell id="6skQf-aW3-xb2tefKcr0-3" value="close registration&lt;br&gt;PATCH /tournaments/tournament_id" style="edgeLabel;html=1;align=center;verticalAlign=middle;resizable=0;points=[];" vertex="1" connectable="0" parent="WIyWlLk6GJQsqaUBKTNV-4">
          <mxGeometry x="-0.219" y="2" relative="1" as="geometry">
            <mxPoint x="103" as="offset" />
          </mxGeometry>
        </mxCell>
        <mxCell id="WIyWlLk6GJQsqaUBKTNV-5" value="join/ unjoin tournament&lt;br&gt;PATCH /tournaments/tournament_id" style="edgeStyle=orthogonalEdgeStyle;rounded=0;html=1;jettySize=auto;orthogonalLoop=1;fontSize=11;endArrow=block;endFill=0;endSize=8;strokeWidth=1;shadow=0;labelBackgroundColor=none;" parent="WIyWlLk6GJQsqaUBKTNV-1" source="WIyWlLk6GJQsqaUBKTNV-6" target="WIyWlLk6GJQsqaUBKTNV-7" edge="1">
          <mxGeometry x="-0.0193" y="25" relative="1" as="geometry">
            <mxPoint as="offset" />
          </mxGeometry>
        </mxCell>
        <mxCell id="WIyWlLk6GJQsqaUBKTNV-6" value="TOURNAMENT&lt;br&gt;REGISTRATION_OPEN" style="rhombus;whiteSpace=wrap;html=1;shadow=0;fontFamily=Helvetica;fontSize=12;align=center;strokeWidth=1;spacing=6;spacingTop=-4;" parent="WIyWlLk6GJQsqaUBKTNV-1" vertex="1">
          <mxGeometry x="345" y="200" width="160" height="150" as="geometry" />
        </mxCell>
        <mxCell id="WIyWlLk6GJQsqaUBKTNV-7" value="User(s) can join tournament" style="rounded=1;whiteSpace=wrap;html=1;fontSize=12;glass=0;strokeWidth=1;shadow=0;" parent="WIyWlLk6GJQsqaUBKTNV-1" vertex="1">
          <mxGeometry x="740" y="255" width="120" height="40" as="geometry" />
        </mxCell>
        <mxCell id="6skQf-aW3-xb2tefKcr0-1" value="open registration&lt;br&gt;PATCH /tournaments/tournament_id&lt;br&gt;" style="text;whiteSpace=wrap;html=1;" vertex="1" parent="WIyWlLk6GJQsqaUBKTNV-1">
          <mxGeometry x="435" y="140" width="230" height="50" as="geometry" />
        </mxCell>
        <mxCell id="6skQf-aW3-xb2tefKcr0-4" value="TOURNAMENT&lt;br&gt;REGISTRATION_CLOSED" style="rhombus;whiteSpace=wrap;html=1;shadow=0;fontFamily=Helvetica;fontSize=12;align=center;strokeWidth=1;spacing=6;spacingTop=-4;" vertex="1" parent="WIyWlLk6GJQsqaUBKTNV-1">
          <mxGeometry x="344" y="440" width="160" height="150" as="geometry" />
        </mxCell>
        <mxCell id="6skQf-aW3-xb2tefKcr0-5" value="" style="rounded=0;html=1;jettySize=auto;orthogonalLoop=1;fontSize=11;endArrow=block;endFill=0;endSize=8;strokeWidth=1;shadow=0;labelBackgroundColor=none;edgeStyle=orthogonalEdgeStyle;movable=1;resizable=1;rotatable=1;deletable=1;editable=1;locked=0;connectable=1;" edge="1" parent="WIyWlLk6GJQsqaUBKTNV-1">
          <mxGeometry y="20" relative="1" as="geometry">
            <mxPoint as="offset" />
            <mxPoint x="425" y="590" as="sourcePoint" />
            <mxPoint x="425" y="680" as="targetPoint" />
          </mxGeometry>
        </mxCell>
        <mxCell id="6skQf-aW3-xb2tefKcr0-6" value="start tournament&lt;br&gt;PATCH /tournaments/tournament_id" style="edgeLabel;html=1;align=center;verticalAlign=middle;resizable=0;points=[];" vertex="1" connectable="0" parent="6skQf-aW3-xb2tefKcr0-5">
          <mxGeometry x="-0.219" y="2" relative="1" as="geometry">
            <mxPoint x="103" as="offset" />
          </mxGeometry>
        </mxCell>
        <mxCell id="6skQf-aW3-xb2tefKcr0-7" value="TOURNAMENT&lt;br&gt;ONGOING" style="rhombus;whiteSpace=wrap;html=1;shadow=0;fontFamily=Helvetica;fontSize=12;align=center;strokeWidth=1;spacing=6;spacingTop=-4;" vertex="1" parent="WIyWlLk6GJQsqaUBKTNV-1">
          <mxGeometry x="345" y="680" width="160" height="150" as="geometry" />
        </mxCell>
        <mxCell id="6skQf-aW3-xb2tefKcr0-8" value="play tournament game(s)&lt;br&gt;/POST /authenticate&lt;br&gt;" style="edgeStyle=orthogonalEdgeStyle;rounded=0;html=1;jettySize=auto;orthogonalLoop=1;fontSize=11;endArrow=block;endFill=0;endSize=8;strokeWidth=1;shadow=0;labelBackgroundColor=none;" edge="1" parent="WIyWlLk6GJQsqaUBKTNV-1">
          <mxGeometry x="0.0657" y="25" relative="1" as="geometry">
            <mxPoint as="offset" />
            <mxPoint x="505" y="755" as="sourcePoint" />
            <mxPoint x="740" y="755.047619047619" as="targetPoint" />
          </mxGeometry>
        </mxCell>
        <mxCell id="6skQf-aW3-xb2tefKcr0-10" value="GAME CREATED" style="rhombus;whiteSpace=wrap;html=1;shadow=0;fontFamily=Helvetica;fontSize=12;align=center;strokeWidth=1;spacing=6;spacingTop=-4;" vertex="1" parent="WIyWlLk6GJQsqaUBKTNV-1">
          <mxGeometry x="740" y="440" width="160" height="150" as="geometry" />
        </mxCell>
        <mxCell id="6skQf-aW3-xb2tefKcr0-11" value="play tournament game(s)&lt;br&gt;/POST /authenticate&lt;br&gt;" style="edgeStyle=orthogonalEdgeStyle;rounded=0;html=1;jettySize=auto;orthogonalLoop=1;fontSize=11;endArrow=block;endFill=0;endSize=8;strokeWidth=1;shadow=0;labelBackgroundColor=none;" edge="1" parent="WIyWlLk6GJQsqaUBKTNV-1">
          <mxGeometry x="-0.0193" y="25" relative="1" as="geometry">
            <mxPoint as="offset" />
            <mxPoint x="504" y="514.52" as="sourcePoint" />
            <mxPoint x="739" y="514.52" as="targetPoint" />
          </mxGeometry>
        </mxCell>
        <mxCell id="6skQf-aW3-xb2tefKcr0-12" value="GAME DONE" style="rhombus;whiteSpace=wrap;html=1;shadow=0;fontFamily=Helvetica;fontSize=12;align=center;strokeWidth=1;spacing=6;spacingTop=-4;" vertex="1" parent="WIyWlLk6GJQsqaUBKTNV-1">
          <mxGeometry x="740" y="680" width="160" height="150" as="geometry" />
        </mxCell>
        <mxCell id="6skQf-aW3-xb2tefKcr0-13" value="" style="rounded=0;html=1;jettySize=auto;orthogonalLoop=1;fontSize=11;endArrow=block;endFill=0;endSize=8;strokeWidth=1;shadow=0;labelBackgroundColor=none;edgeStyle=orthogonalEdgeStyle;movable=1;resizable=1;rotatable=1;deletable=1;editable=1;locked=0;connectable=1;" edge="1" parent="WIyWlLk6GJQsqaUBKTNV-1">
          <mxGeometry y="20" relative="1" as="geometry">
            <mxPoint as="offset" />
            <mxPoint x="819.52" y="590" as="sourcePoint" />
            <mxPoint x="819.52" y="680" as="targetPoint" />
          </mxGeometry>
        </mxCell>
        <mxCell id="6skQf-aW3-xb2tefKcr0-14" value="game played&lt;br&gt;PATCH /tournaments/tournament_id/games/game_id" style="edgeLabel;html=1;align=center;verticalAlign=middle;resizable=0;points=[];" vertex="1" connectable="0" parent="6skQf-aW3-xb2tefKcr0-13">
          <mxGeometry x="-0.219" y="2" relative="1" as="geometry">
            <mxPoint x="138" y="15" as="offset" />
          </mxGeometry>
        </mxCell>
        <mxCell id="6skQf-aW3-xb2tefKcr0-15" value="GAME CANCELLED" style="rhombus;whiteSpace=wrap;html=1;shadow=0;fontFamily=Helvetica;fontSize=12;align=center;strokeWidth=1;spacing=6;spacingTop=-4;" vertex="1" parent="WIyWlLk6GJQsqaUBKTNV-1">
          <mxGeometry x="1140" y="440" width="160" height="150" as="geometry" />
        </mxCell>
        <mxCell id="6skQf-aW3-xb2tefKcr0-16" value="game canceled&lt;br&gt;DELETE /tournaments/tournament_id/games/game_id" style="edgeLabel;html=1;align=center;verticalAlign=middle;resizable=0;points=[];" vertex="1" connectable="0" parent="WIyWlLk6GJQsqaUBKTNV-1">
          <mxGeometry x="1010" y="469.9980952380952" as="geometry">
            <mxPoint x="13" y="6" as="offset" />
          </mxGeometry>
        </mxCell>
        <mxCell id="6skQf-aW3-xb2tefKcr0-18" value="" style="endArrow=classic;html=1;rounded=0;entryX=0;entryY=0.5;entryDx=0;entryDy=0;exitX=1;exitY=0.5;exitDx=0;exitDy=0;" edge="1" parent="WIyWlLk6GJQsqaUBKTNV-1" source="6skQf-aW3-xb2tefKcr0-10" target="6skQf-aW3-xb2tefKcr0-15">
          <mxGeometry width="50" height="50" relative="1" as="geometry">
            <mxPoint x="970" y="550" as="sourcePoint" />
            <mxPoint x="1020" y="500" as="targetPoint" />
          </mxGeometry>
        </mxCell>
        <mxCell id="6skQf-aW3-xb2tefKcr0-19" value="" style="rounded=0;html=1;jettySize=auto;orthogonalLoop=1;fontSize=11;endArrow=block;endFill=0;endSize=8;strokeWidth=1;shadow=0;labelBackgroundColor=none;edgeStyle=orthogonalEdgeStyle;movable=1;resizable=1;rotatable=1;deletable=1;editable=1;locked=0;connectable=1;" edge="1" parent="WIyWlLk6GJQsqaUBKTNV-1">
          <mxGeometry y="20" relative="1" as="geometry">
            <mxPoint as="offset" />
            <mxPoint x="819.52" y="830" as="sourcePoint" />
            <mxPoint x="819.52" y="920" as="targetPoint" />
          </mxGeometry>
        </mxCell>
        <mxCell id="6skQf-aW3-xb2tefKcr0-20" value="all games done/cancelled ?" style="edgeLabel;html=1;align=center;verticalAlign=middle;resizable=0;points=[];" vertex="1" connectable="0" parent="6skQf-aW3-xb2tefKcr0-19">
          <mxGeometry x="-0.219" y="2" relative="1" as="geometry">
            <mxPoint x="78" y="15" as="offset" />
          </mxGeometry>
        </mxCell>
        <mxCell id="6skQf-aW3-xb2tefKcr0-21" value="TOURNAMENT&lt;br&gt;CREATED" style="rhombus;whiteSpace=wrap;html=1;shadow=0;fontFamily=Helvetica;fontSize=12;align=center;strokeWidth=1;spacing=6;spacingTop=-4;" vertex="1" parent="WIyWlLk6GJQsqaUBKTNV-1">
          <mxGeometry x="345" y="-70" width="160" height="150" as="geometry" />
        </mxCell>
        <mxCell id="6skQf-aW3-xb2tefKcr0-22" value="" style="rounded=0;html=1;jettySize=auto;orthogonalLoop=1;fontSize=11;endArrow=block;endFill=0;endSize=8;strokeWidth=1;shadow=0;labelBackgroundColor=none;edgeStyle=orthogonalEdgeStyle;exitX=0.5;exitY=1;exitDx=0;exitDy=0;" edge="1" parent="WIyWlLk6GJQsqaUBKTNV-1" source="WIyWlLk6GJQsqaUBKTNV-3">
          <mxGeometry relative="1" as="geometry">
            <mxPoint x="480" y="-100" as="sourcePoint" />
            <mxPoint x="424.52" y="-70" as="targetPoint" />
          </mxGeometry>
        </mxCell>
        <mxCell id="WIyWlLk6GJQsqaUBKTNV-3" value="create a&amp;nbsp; tournament&lt;br&gt;POST/tournaments" style="rounded=1;whiteSpace=wrap;html=1;fontSize=12;glass=0;strokeWidth=1;shadow=0;" parent="WIyWlLk6GJQsqaUBKTNV-1" vertex="1">
          <mxGeometry x="364" y="-160" width="120" height="40" as="geometry" />
        </mxCell>
        <mxCell id="6skQf-aW3-xb2tefKcr0-24" value="TOURNAMENT&lt;br&gt;DONE" style="rhombus;whiteSpace=wrap;html=1;shadow=0;fontFamily=Helvetica;fontSize=12;align=center;strokeWidth=1;spacing=6;spacingTop=-4;" vertex="1" parent="WIyWlLk6GJQsqaUBKTNV-1">
          <mxGeometry x="740" y="920" width="160" height="150" as="geometry" />
        </mxCell>
      </root>
    </mxGraphModel>
  </diagram>
</mxfile>
